<svg id="Layer_1" data-name="Layer 1" xmlns="http://www.w3.org/2000/svg" viewBox="0 0 122.88 81.77"><defs><style>.cls-1{fill:#ed1b24;}.cls-1,.cls-3{fill-rule:evenodd;}.cls-2{fill:#fff;}.cls-3{fill:#630000;}</style></defs><title>heart-with-cupid-arrow</title><path class="cls-1" d="M57.7,25.54c4.09-4.34,7.49-7.9,14.4-8.69a20,20,0,0,1,11.3,2,21,21,0,0,1,4.87,3.36,26.1,26.1,0,0,1,4.11,5.18,18.1,18.1,0,0,1,2.07,6.69,18.49,18.49,0,0,1-2,10.5A36.53,36.53,0,0,1,88.2,51c-1.75,2.18-3.79,4.42-5.93,6.64-3,3.05-6.07,6-8.88,8.73-1.65,1.57-3.18,3-4.48,4.33l-9.77,9.69-1.37,1.36-1.39-1.33-8.07-7.78c-1.48-1.42-3.19-3-5-4.6C33.71,59.28,22.1,48.69,21.63,35.58c0-.32,0-.65,0-1A17.29,17.29,0,0,1,27.08,21.9a19.27,19.27,0,0,1,12.48-5c.33,0,.67,0,1,0,8.33.11,12.14,3.76,17.11,8.64Zm-26.8,8.4a1.34,1.34,0,1,1-2.52-.9,14.34,14.34,0,0,1,1.55-3.11,14.74,14.74,0,0,1,2.25-2.66,15.27,15.27,0,0,1,2.87-2.11,16.47,16.47,0,0,1,3.33-1.43,1.34,1.34,0,0,1,.78,2.56,13.49,13.49,0,0,0-2.78,1.2A12.68,12.68,0,0,0,34,29.23a12.43,12.43,0,0,0-1.84,2.18,11.53,11.53,0,0,0-1.27,2.53Z"/><path class="cls-2" d="M30.9,33.94a1.34,1.34,0,1,1-2.52-.9,14.34,14.34,0,0,1,1.55-3.11,14.74,14.74,0,0,1,2.25-2.66,15.27,15.27,0,0,1,2.87-2.11,16.47,16.47,0,0,1,3.33-1.43,1.34,1.34,0,0,1,.78,2.56,13.49,13.49,0,0,0-2.78,1.2A12.68,12.68,0,0,0,34,29.23a12.43,12.43,0,0,0-1.84,2.18,11.53,11.53,0,0,0-1.27,2.53Z"/><path class="cls-3" d="M16.76,61.32l8.56-5,3.13,3.63-9.16,5,5.9,4.13,1.09.76c1.66,1.16,1.82,3.23-.55,3.06l-24.28,1A1.51,1.51,0,0,1,.12,73,2.19,2.19,0,0,1,0,71.88C.26,70,10.82,55.6,12.69,52.89c1.27-1.83,3.63-4.46,3.81-.09l.26,8.52ZM58.54,45.11l-2-3.36L92.43,21.41l-.59-10.74L110.55.2c1.13-.41,1.94-.21,2.29.86l1,10.87a90.64,90.64,0,0,1,8.52,5.9,1.47,1.47,0,0,1,.44,1.75,2.24,2.24,0,0,1-1.13,1.14l-14.06,8.22c-1.24.73-2.76,1.88-4.23,1.78a3.51,3.51,0,0,1-1.86-.74l-7-5.06-36,20.19Z"/></svg>